<?xml version="1.0" encoding="UTF-8"?>
<svg xmlns="http://www.w3.org/2000/svg" xmlns:xlink="http://www.w3.org/1999/xlink" width="2480" height="3508" viewBox="0 0 2480 3508">
<defs>
<g>
<g id="glyph-0-0">
<path d="M 0.671875 -1.203125 C 0.734375 -1.367188 0.78125 -1.507812 0.8125 -1.625 C 0.832031 -1.6875 0.863281 -1.71875 0.90625 -1.71875 C 0.914062 -1.71875 0.925781 -1.710938 0.9375 -1.703125 C 0.96875 -1.691406 0.984375 -1.671875 0.984375 -1.640625 C 0.984375 -1.617188 0.9375 -1.476562 0.84375 -1.21875 C 0.875 -1.21875 0.90625 -1.21875 0.9375 -1.21875 C 1.15625 -1.21875 1.265625 -1.117188 1.265625 -0.921875 C 1.265625 -0.691406 1.21875 -0.460938 1.125 -0.234375 C 1.09375 -0.171875 1.054688 -0.109375 1.015625 -0.046875 C 0.972656 -0.00390625 0.921875 0.015625 0.859375 0.015625 C 0.804688 0.015625 0.742188 -0.03125 0.671875 -0.125 C 0.617188 -0.175781 0.59375 -0.210938 0.59375 -0.234375 C 0.59375 -0.242188 0.597656 -0.253906 0.609375 -0.265625 C 0.628906 -0.273438 0.644531 -0.28125 0.65625 -0.28125 C 0.664062 -0.28125 0.679688 -0.269531 0.703125 -0.25 C 0.773438 -0.1875 0.820312 -0.15625 0.84375 -0.15625 C 0.875 -0.15625 0.910156 -0.203125 0.953125 -0.296875 C 0.992188 -0.367188 1.023438 -0.453125 1.046875 -0.546875 C 1.078125 -0.671875 1.09375 -0.789062 1.09375 -0.90625 C 1.09375 -0.957031 1.082031 -1 1.0625 -1.03125 C 1.03125 -1.050781 0.984375 -1.0625 0.921875 -1.0625 C 0.890625 -1.0625 0.84375 -1.0625 0.78125 -1.0625 C 0.6875 -0.820312 0.566406 -0.5625 0.421875 -0.28125 C 0.398438 -0.238281 0.375 -0.21875 0.34375 -0.21875 C 0.320312 -0.21875 0.304688 -0.222656 0.296875 -0.234375 C 0.265625 -0.253906 0.25 -0.273438 0.25 -0.296875 C 0.25 -0.316406 0.265625 -0.351562 0.296875 -0.40625 C 0.398438 -0.570312 0.503906 -0.785156 0.609375 -1.046875 C 0.523438 -1.035156 0.4375 -1.023438 0.34375 -1.015625 C 0.332031 -1.003906 0.320312 -1 0.3125 -1 C 0.257812 -1 0.234375 -1.023438 0.234375 -1.078125 C 0.234375 -1.128906 0.257812 -1.160156 0.3125 -1.171875 C 0.375 -1.179688 0.492188 -1.191406 0.671875 -1.203125 Z M 1.65625 -1.328125 C 1.675781 -1.328125 1.703125 -1.3125 1.734375 -1.28125 C 1.859375 -1.164062 1.972656 -1.023438 2.078125 -0.859375 C 2.085938 -0.828125 2.09375 -0.800781 2.09375 -0.78125 C 2.09375 -0.75 2.082031 -0.722656 2.0625 -0.703125 C 2.039062 -0.691406 2.019531 -0.6875 2 -0.6875 C 1.976562 -0.6875 1.957031 -0.695312 1.9375 -0.71875 C 1.925781 -0.726562 1.914062 -0.75 1.90625 -0.78125 C 1.820312 -0.9375 1.722656 -1.078125 1.609375 -1.203125 C 1.597656 -1.210938 1.59375 -1.226562 1.59375 -1.25 C 1.59375 -1.269531 1.597656 -1.285156 1.609375 -1.296875 C 1.628906 -1.316406 1.644531 -1.328125 1.65625 -1.328125 Z "/>
</g>
</g>
</defs>
<g fill="rgb(18.431373%, 16.470588%, 15.294118%)" fill-opacity="1">
<use xlink:href="#glyph-0-0" x="30" y="22.003906"/>
</g>
</svg>
