<?xml version="1.0" encoding="UTF-8"?>
<svg xmlns="http://www.w3.org/2000/svg" xmlns:xlink="http://www.w3.org/1999/xlink" width="2480" height="3508" viewBox="0 0 2480 3508">
<defs>
<g>
<g id="glyph-0-0">
<path d="M 4.609375 -0.359375 C 4.703125 -0.328125 4.75 -0.265625 4.75 -0.171875 C 4.75 -0.0351562 4.671875 0.0351562 4.515625 0.046875 L 2.125 0.15625 L 2.125 0.1875 C 2.125 0.195312 2.125 0.207031 2.125 0.21875 C 2.125 0.34375 2.050781 0.40625 1.90625 0.40625 C 1.78125 0.40625 1.703125 0.332031 1.671875 0.1875 L 1.40625 -1.515625 C 1.40625 -1.535156 1.40625 -1.550781 1.40625 -1.5625 C 1.40625 -1.6875 1.484375 -1.75 1.640625 -1.75 C 1.742188 -1.75 1.816406 -1.703125 1.859375 -1.609375 L 4.390625 -1.765625 C 4.390625 -1.765625 4.398438 -1.765625 4.421875 -1.765625 C 4.546875 -1.765625 4.644531 -1.734375 4.71875 -1.671875 C 4.789062 -1.597656 4.828125 -1.507812 4.828125 -1.40625 C 4.828125 -1.363281 4.820312 -1.320312 4.8125 -1.28125 Z M 4.171875 -0.359375 L 4.328125 -1.21875 C 4.335938 -1.238281 4.34375 -1.253906 4.34375 -1.265625 C 4.34375 -1.335938 4.300781 -1.375 4.21875 -1.375 C 4.207031 -1.375 4.203125 -1.375 4.203125 -1.375 L 1.921875 -1.203125 L 2.0625 -0.25 Z M 3.21875 -3.828125 L 3.21875 -2.03125 C 3.21875 -1.96875 3.203125 -1.921875 3.171875 -1.890625 C 3.128906 -1.835938 3.070312 -1.8125 3 -1.8125 C 2.851562 -1.8125 2.78125 -1.882812 2.78125 -2.03125 L 2.78125 -3.40625 L 2.75 -3.390625 C 2.21875 -2.941406 1.628906 -2.550781 0.984375 -2.21875 C 0.773438 -2.113281 0.640625 -2.0625 0.578125 -2.0625 C 0.523438 -2.0625 0.484375 -2.082031 0.453125 -2.125 C 0.429688 -2.15625 0.421875 -2.1875 0.421875 -2.21875 C 0.421875 -2.269531 0.445312 -2.316406 0.5 -2.359375 C 0.507812 -2.367188 0.597656 -2.414062 0.765625 -2.5 C 1.285156 -2.769531 1.8125 -3.132812 2.34375 -3.59375 C 2.5625 -3.769531 2.765625 -3.957031 2.953125 -4.15625 L 0.96875 -4.046875 C 0.96875 -4.046875 0.960938 -4.046875 0.953125 -4.046875 C 0.953125 -4.046875 0.945312 -4.046875 0.9375 -4.046875 C 0.851562 -4.046875 0.789062 -4.082031 0.75 -4.15625 C 0.738281 -4.175781 0.734375 -4.207031 0.734375 -4.25 C 0.734375 -4.363281 0.796875 -4.425781 0.921875 -4.4375 L 5.078125 -4.6875 C 5.234375 -4.6875 5.3125 -4.617188 5.3125 -4.484375 C 5.3125 -4.359375 5.25 -4.296875 5.125 -4.296875 L 3.5625 -4.203125 C 3.476562 -4.097656 3.363281 -3.972656 3.21875 -3.828125 Z M 3.734375 -3.5625 C 3.785156 -3.5625 3.921875 -3.515625 4.140625 -3.421875 C 4.679688 -3.179688 5.113281 -2.941406 5.4375 -2.703125 C 5.550781 -2.617188 5.609375 -2.53125 5.609375 -2.4375 C 5.609375 -2.382812 5.59375 -2.34375 5.5625 -2.3125 C 5.507812 -2.238281 5.445312 -2.203125 5.375 -2.203125 C 5.3125 -2.203125 5.210938 -2.257812 5.078125 -2.375 C 4.679688 -2.695312 4.226562 -2.984375 3.71875 -3.234375 C 3.632812 -3.273438 3.59375 -3.332031 3.59375 -3.40625 C 3.59375 -3.507812 3.640625 -3.5625 3.734375 -3.5625 Z "/>
</g>
</g>
</defs>
<g fill="rgb(76.078431%, 9.411765%, 35.686275%)" fill-opacity="1">
<use xlink:href="#glyph-0-0" x="30" y="25.375977"/>
</g>
</svg>
