<?xml version="1.0" encoding="UTF-8"?>
<svg xmlns="http://www.w3.org/2000/svg" xmlns:xlink="http://www.w3.org/1999/xlink" width="2480" height="3508" viewBox="0 0 2480 3508">
<defs>
<g>
<g id="glyph-0-0">
<path d="M 0.203125 -0.15625 L 0.671875 -0.15625 C 0.703125 -0.15625 0.71875 -0.140625 0.71875 -0.109375 C 0.71875 -0.0664062 0.703125 -0.046875 0.671875 -0.046875 L 0.171875 -0.046875 C 0.109375 -0.046875 0.078125 -0.0703125 0.078125 -0.125 C 0.078125 -0.144531 0.0859375 -0.171875 0.109375 -0.203125 C 0.148438 -0.285156 0.238281 -0.398438 0.375 -0.546875 C 0.4375 -0.628906 0.476562 -0.6875 0.5 -0.71875 C 0.539062 -0.769531 0.5625 -0.820312 0.5625 -0.875 C 0.5625 -0.925781 0.550781 -0.96875 0.53125 -1 C 0.507812 -1.039062 0.46875 -1.0625 0.40625 -1.0625 C 0.320312 -1.0625 0.257812 -1.023438 0.21875 -0.953125 C 0.207031 -0.921875 0.191406 -0.90625 0.171875 -0.90625 C 0.160156 -0.90625 0.148438 -0.910156 0.140625 -0.921875 C 0.117188 -0.929688 0.109375 -0.945312 0.109375 -0.96875 C 0.109375 -0.976562 0.113281 -0.992188 0.125 -1.015625 C 0.15625 -1.078125 0.203125 -1.117188 0.265625 -1.140625 C 0.304688 -1.160156 0.351562 -1.171875 0.40625 -1.171875 C 0.488281 -1.171875 0.554688 -1.144531 0.609375 -1.09375 C 0.660156 -1.039062 0.6875 -0.96875 0.6875 -0.875 C 0.6875 -0.800781 0.660156 -0.726562 0.609375 -0.65625 C 0.578125 -0.625 0.519531 -0.554688 0.4375 -0.453125 C 0.351562 -0.367188 0.273438 -0.269531 0.203125 -0.15625 Z "/>
</g>
<g id="glyph-0-1">
<path d="M 0.390625 -1.171875 C 0.492188 -1.171875 0.578125 -1.117188 0.640625 -1.015625 C 0.691406 -0.921875 0.71875 -0.78125 0.71875 -0.59375 C 0.71875 -0.425781 0.691406 -0.296875 0.640625 -0.203125 C 0.585938 -0.078125 0.503906 -0.015625 0.390625 -0.015625 C 0.296875 -0.015625 0.222656 -0.0625 0.171875 -0.15625 C 0.109375 -0.257812 0.078125 -0.40625 0.078125 -0.59375 C 0.078125 -0.789062 0.109375 -0.941406 0.171875 -1.046875 C 0.222656 -1.128906 0.296875 -1.171875 0.390625 -1.171875 Z M 0.390625 -1.0625 C 0.265625 -1.0625 0.203125 -0.90625 0.203125 -0.59375 C 0.203125 -0.457031 0.21875 -0.351562 0.25 -0.28125 C 0.28125 -0.1875 0.328125 -0.140625 0.390625 -0.140625 C 0.453125 -0.140625 0.5 -0.171875 0.53125 -0.234375 C 0.5625 -0.316406 0.578125 -0.4375 0.578125 -0.59375 C 0.578125 -0.90625 0.515625 -1.0625 0.390625 -1.0625 Z "/>
</g>
</g>
</defs>
<g fill="rgb(6.666667%, 6.666667%, 6.666667%)" fill-opacity="1">
<use xlink:href="#glyph-0-0" x="30" y="21.392578"/>
<use xlink:href="#glyph-0-1" x="31" y="21.392578"/>
</g>
</svg>
