<?xml version="1.0" encoding="UTF-8"?>
<svg xmlns="http://www.w3.org/2000/svg" xmlns:xlink="http://www.w3.org/1999/xlink" width="2480" height="3508" viewBox="0 0 2480 3508">
<defs>
<g>
<g id="glyph-0-0">
<path d="M 2.40625 -1.96875 C 2.40625 -1.894531 2.390625 -1.800781 2.359375 -1.6875 L 3.65625 -1.78125 L 3.671875 -1.78125 C 3.722656 -1.78125 3.765625 -1.757812 3.796875 -1.71875 C 3.796875 -1.695312 3.796875 -1.675781 3.796875 -1.65625 C 3.796875 -1.582031 3.753906 -1.539062 3.671875 -1.53125 L 2.28125 -1.4375 C 2.25 -1.332031 2.21875 -1.238281 2.1875 -1.15625 L 3.1875 -1.234375 C 3.1875 -1.234375 3.191406 -1.234375 3.203125 -1.234375 C 3.347656 -1.234375 3.421875 -1.175781 3.421875 -1.0625 C 3.421875 -1.007812 3.390625 -0.929688 3.328125 -0.828125 C 3.234375 -0.679688 3.09375 -0.523438 2.90625 -0.359375 C 3.1875 -0.179688 3.453125 -0.0390625 3.703125 0.0625 C 3.773438 0.09375 3.8125 0.125 3.8125 0.15625 C 3.8125 0.164062 3.789062 0.179688 3.75 0.203125 C 3.613281 0.253906 3.507812 0.28125 3.4375 0.28125 C 3.382812 0.28125 3.328125 0.257812 3.265625 0.21875 C 3.171875 0.15625 3 0.03125 2.75 -0.15625 L 2.703125 -0.1875 C 2.492188 -0.03125 2.269531 0.09375 2.03125 0.1875 C 1.925781 0.238281 1.851562 0.265625 1.8125 0.265625 C 1.769531 0.265625 1.738281 0.242188 1.71875 0.203125 C 1.707031 0.191406 1.703125 0.175781 1.703125 0.15625 C 1.703125 0.113281 1.71875 0.0820312 1.75 0.0625 C 1.757812 0.0507812 1.789062 0.0351562 1.84375 0.015625 C 2.039062 -0.0664062 2.253906 -0.191406 2.484375 -0.359375 C 2.304688 -0.515625 2.148438 -0.664062 2.015625 -0.8125 C 1.859375 -0.53125 1.675781 -0.289062 1.46875 -0.09375 C 1.351562 0.0195312 1.273438 0.078125 1.234375 0.078125 C 1.203125 0.078125 1.175781 0.0664062 1.15625 0.046875 C 1.132812 0.0234375 1.125 0.00390625 1.125 -0.015625 C 1.125 -0.046875 1.160156 -0.09375 1.234375 -0.15625 C 1.429688 -0.351562 1.609375 -0.601562 1.765625 -0.90625 C 1.828125 -1.03125 1.890625 -1.179688 1.953125 -1.359375 L 1.96875 -1.421875 L 1.46875 -1.390625 C 1.457031 -1.390625 1.445312 -1.390625 1.4375 -1.390625 C 1.351562 -1.390625 1.3125 -1.425781 1.3125 -1.5 C 1.3125 -1.570312 1.359375 -1.613281 1.453125 -1.625 L 2.046875 -1.671875 C 2.066406 -1.765625 2.085938 -1.859375 2.109375 -1.953125 L 1.65625 -1.90625 C 1.632812 -1.90625 1.625 -1.90625 1.625 -1.90625 C 1.539062 -1.90625 1.5 -1.941406 1.5 -2.015625 C 1.5 -2.097656 1.539062 -2.144531 1.625 -2.15625 L 2.90625 -2.25 C 2.90625 -2.257812 2.910156 -2.269531 2.921875 -2.28125 C 3.015625 -2.425781 3.101562 -2.601562 3.1875 -2.8125 C 3.21875 -2.882812 3.265625 -2.921875 3.328125 -2.921875 C 3.359375 -2.921875 3.390625 -2.914062 3.421875 -2.90625 C 3.472656 -2.875 3.5 -2.832031 3.5 -2.78125 C 3.5 -2.757812 3.488281 -2.726562 3.46875 -2.6875 C 3.375 -2.539062 3.28125 -2.40625 3.1875 -2.28125 L 3.453125 -2.296875 C 3.460938 -2.296875 3.46875 -2.296875 3.46875 -2.296875 C 3.550781 -2.296875 3.59375 -2.257812 3.59375 -2.1875 C 3.59375 -2.113281 3.550781 -2.070312 3.46875 -2.0625 Z M 2.21875 -0.921875 C 2.34375 -0.796875 2.5 -0.664062 2.6875 -0.53125 C 2.789062 -0.625 2.890625 -0.726562 2.984375 -0.84375 C 3.023438 -0.894531 3.046875 -0.929688 3.046875 -0.953125 C 3.046875 -0.960938 3.023438 -0.96875 2.984375 -0.96875 C 2.984375 -0.96875 2.976562 -0.96875 2.96875 -0.96875 Z M 0.984375 -2.21875 L 0.984375 -1.6875 C 1.066406 -1.726562 1.148438 -1.78125 1.234375 -1.84375 C 1.265625 -1.863281 1.296875 -1.875 1.328125 -1.875 C 1.347656 -1.875 1.367188 -1.863281 1.390625 -1.84375 C 1.410156 -1.820312 1.421875 -1.800781 1.421875 -1.78125 C 1.421875 -1.738281 1.40625 -1.703125 1.375 -1.671875 C 1.300781 -1.617188 1.171875 -1.535156 0.984375 -1.421875 L 0.984375 -0.015625 C 0.984375 0.148438 0.914062 0.234375 0.78125 0.234375 C 0.707031 0.234375 0.601562 0.203125 0.46875 0.140625 C 0.300781 0.0664062 0.21875 0.00390625 0.21875 -0.046875 C 0.21875 -0.0976562 0.25 -0.125 0.3125 -0.125 C 0.34375 -0.125 0.375 -0.117188 0.40625 -0.109375 C 0.507812 -0.078125 0.585938 -0.0625 0.640625 -0.0625 C 0.691406 -0.0625 0.71875 -0.0976562 0.71875 -0.171875 L 0.71875 -1.25 C 0.488281 -1.125 0.347656 -1.0625 0.296875 -1.0625 C 0.210938 -1.0625 0.171875 -1.109375 0.171875 -1.203125 C 0.171875 -1.242188 0.191406 -1.28125 0.234375 -1.3125 C 0.242188 -1.320312 0.273438 -1.335938 0.328125 -1.359375 C 0.460938 -1.421875 0.59375 -1.484375 0.71875 -1.546875 L 0.71875 -2.171875 L 0.34375 -2.125 C 0.332031 -2.125 0.328125 -2.125 0.328125 -2.125 C 0.273438 -2.113281 0.238281 -2.128906 0.21875 -2.171875 C 0.207031 -2.191406 0.203125 -2.21875 0.203125 -2.25 C 0.203125 -2.320312 0.238281 -2.363281 0.3125 -2.375 L 0.71875 -2.421875 L 0.71875 -3.125 C 0.71875 -3.164062 0.726562 -3.195312 0.75 -3.21875 C 0.78125 -3.25 0.816406 -3.265625 0.859375 -3.265625 C 0.898438 -3.265625 0.9375 -3.25 0.96875 -3.21875 C 0.976562 -3.195312 0.984375 -3.164062 0.984375 -3.125 L 0.984375 -2.46875 L 1.265625 -2.5 C 1.273438 -2.5 1.285156 -2.5 1.296875 -2.5 C 1.347656 -2.507812 1.382812 -2.488281 1.40625 -2.4375 C 1.40625 -2.414062 1.40625 -2.394531 1.40625 -2.375 C 1.40625 -2.300781 1.367188 -2.257812 1.296875 -2.25 Z M 3.140625 -3.328125 C 3.203125 -3.328125 3.242188 -3.300781 3.265625 -3.25 C 3.273438 -3.226562 3.28125 -3.207031 3.28125 -3.1875 C 3.28125 -3.113281 3.207031 -3.0625 3.0625 -3.03125 C 2.71875 -2.945312 2.257812 -2.867188 1.6875 -2.796875 C 1.664062 -2.785156 1.648438 -2.78125 1.640625 -2.78125 C 1.566406 -2.78125 1.53125 -2.816406 1.53125 -2.890625 C 1.53125 -2.941406 1.554688 -2.976562 1.609375 -3 C 1.617188 -3 1.660156 -3.007812 1.734375 -3.03125 C 2.191406 -3.09375 2.601562 -3.179688 2.96875 -3.296875 C 3.050781 -3.316406 3.109375 -3.328125 3.140625 -3.328125 Z M 1.625 -2.71875 C 1.65625 -2.71875 1.6875 -2.703125 1.71875 -2.671875 C 1.882812 -2.523438 1.96875 -2.410156 1.96875 -2.328125 C 1.96875 -2.285156 1.945312 -2.253906 1.90625 -2.234375 C 1.882812 -2.210938 1.851562 -2.203125 1.8125 -2.203125 C 1.75 -2.203125 1.707031 -2.238281 1.6875 -2.3125 C 1.664062 -2.351562 1.625 -2.429688 1.5625 -2.546875 C 1.539062 -2.585938 1.53125 -2.613281 1.53125 -2.625 C 1.53125 -2.65625 1.546875 -2.679688 1.578125 -2.703125 C 1.597656 -2.710938 1.613281 -2.71875 1.625 -2.71875 Z M 2.3125 -2.8125 C 2.375 -2.8125 2.453125 -2.75 2.546875 -2.625 C 2.628906 -2.519531 2.671875 -2.441406 2.671875 -2.390625 C 2.671875 -2.359375 2.648438 -2.328125 2.609375 -2.296875 C 2.578125 -2.285156 2.546875 -2.28125 2.515625 -2.28125 C 2.453125 -2.28125 2.40625 -2.316406 2.375 -2.390625 C 2.332031 -2.503906 2.289062 -2.59375 2.25 -2.65625 C 2.226562 -2.6875 2.21875 -2.710938 2.21875 -2.734375 C 2.21875 -2.785156 2.25 -2.8125 2.3125 -2.8125 Z "/>
</g>
</g>
</defs>
<g fill="rgb(6.666667%, 6.666667%, 6.666667%)" fill-opacity="1">
<use xlink:href="#glyph-0-0" x="30" y="23.543945"/>
</g>
</svg>
